<svg width="95" height="55" viewBox="0 0 95 55" fill="none" xmlns="http://www.w3.org/2000/svg">
<path d="M16.188 39.988V31.636H16.656L22.488 37.312V31.636H22.932V39.988H16.188ZM31.0348 31.648V32.092H28.5388V39.556H31.0348V40H25.6228V39.556H28.1068V32.092H25.6228V31.648H31.0348ZM40.1456 38.284C39.9296 38.836 39.5376 39.292 38.9696 39.652C38.4016 40.004 37.7936 40.18 37.1456 40.18C36.5216 40.18 35.9456 40.024 35.4176 39.712C34.8896 39.4 34.4696 38.972 34.1576 38.428C33.8536 37.876 33.7016 37.272 33.7016 36.616V34.936C33.7016 34.296 33.8536 33.712 34.1576 33.184C34.4696 32.656 34.8856 32.24 35.4056 31.936C35.9336 31.624 36.5136 31.468 37.1456 31.468C37.6656 31.468 38.1416 31.556 38.5736 31.732C39.0056 31.9 39.3736 32.148 39.6776 32.476C39.9256 32.748 40.1256 33.052 40.2776 33.388C40.4376 33.724 40.5176 34.064 40.5176 34.408H40.0856C40.0776 34.112 40.0016 33.82 39.8576 33.532C39.7216 33.244 39.5456 32.984 39.3296 32.752C38.7936 32.192 38.0656 31.912 37.1456 31.912C36.5936 31.912 36.0856 32.048 35.6216 32.32C35.1656 32.584 34.8056 32.948 34.5416 33.412C34.2776 33.868 34.1456 34.376 34.1456 34.936V36.616C34.1456 37.2 34.2776 37.732 34.5416 38.212C34.8136 38.684 35.1776 39.056 35.6336 39.328C36.0976 39.6 36.6016 39.736 37.1456 39.736C37.6976 39.736 38.2016 39.604 38.6576 39.34C39.1216 39.068 39.4856 38.704 39.7496 38.248C40.0136 37.784 40.1456 37.28 40.1456 36.736V36.316H37.1456V35.872H40.5896V40H40.1456V38.284ZM42.8724 40V31.648H43.3164V35.596H48.8604V31.648H49.3044V40H48.8604V36.04H43.3164V40H42.8724ZM58.3433 31.648V32.092H55.1873V40H54.7553V32.092H51.5993V31.648H58.3433ZM67.1661 31.648V32.092H61.4181V34.768H66.0261V36.88H61.4181V40H60.9741V31.648H67.1661ZM72.5089 31.648H72.9769L76.4089 40H75.9289L74.8009 37.24H70.6849L69.5449 40H69.0769L72.5089 31.648ZM70.8649 36.808H74.6209L72.7369 32.224L70.8649 36.808ZM79.0397 40V31.648H79.4837V39.556H85.3037V40H79.0397ZM87.9225 40V31.648H88.3665V39.556H94.1865V40H87.9225Z" fill="#C3C3C3"/>
<path d="M52.5 27.5C52.5 14.5 40.5 1.5 26.5 1.5" stroke="#C3C3C3" stroke-width="2"/>
<path d="M26.5 1.5C13.5 1.5 1 14 1 28" stroke="#C3C3C3" stroke-width="2"/>
<path d="M1 28C1 41 13 54 27 54" stroke="#C3C3C3" stroke-width="2"/>
</svg>
