<svg width="400" height="400" viewBox="0 0 400 400" fill="none" xmlns="http://www.w3.org/2000/svg">
<rect x="0.5" y="0.5" width="14" height="14" stroke="white"/>
<rect x="385.5" y="385.5" width="14" height="14" stroke="white"/>
<line x1="189.649" y1="190.356" x2="17.6464" y2="18.3536" stroke="white"/>
<line x1="381.649" y1="382.356" x2="209.646" y2="210.354" stroke="white"/>
<path fill-rule="evenodd" clip-rule="evenodd" d="M211.522 205.63V195.259L211.804 195H219.718L220 195.259V196.296L219.718 196.556H213.218V199.667H218.022L218.305 199.926V200.963L218.022 201.223H213.218V204.334H219.718L220 204.593V205.63L219.718 205.889H211.804L211.522 205.63ZM181 205.63V195.259L181.282 195H182.413L182.696 195.259V197.074L187.783 201.741V195.259L188.065 195H189.196L189.478 195.259V205.63L189.196 205.889H188.065L187.783 205.63V203.815L182.696 199.148V205.63L182.413 205.889H181.282L181 205.63ZM201.348 205.63V195.259L201.63 195H202.761L203.044 195.259V197.074L208.131 201.741V195.259L208.413 195H209.544L209.826 195.259V205.63L209.544 205.889H208.413L208.131 205.63V203.815L203.044 199.148V205.63L202.761 205.889H201.63L201.348 205.63ZM191.174 204.075V196.815L193.152 195H197.674L199.652 196.815V204.075L197.674 205.889H193.152L191.174 204.075ZM197.109 196.556H193.717L192.87 197.333V203.556L193.717 204.334H197.109L197.957 203.556V197.333L197.109 196.556Z" fill="white"/>
</svg>
